<svg width="182" height="109" viewBox="0 0 182 109" fill="currentColor" xmlns="http://www.w3.org/2000/svg">
<path d="M1.33313 43.7533C2.02113 43.1033 2.28713 42.4803 2.07513 41.7303C1.79413 40.7353 2.26614 39.8343 2.44714 38.9003C2.49014 38.6793 2.70912 38.4833 2.87112 38.2963C3.07612 38.0593 3.45416 37.8673 3.49716 37.6123C3.62116 36.8763 4.12415 36.5373 4.67715 36.1953C4.83815 36.0953 4.97416 35.9493 5.10916 35.8123C5.75416 35.1563 5.78411 34.4943 5.24111 33.7583C4.71611 33.0473 4.21512 32.3183 3.64712 31.5183C4.93012 30.8833 6.21915 30.8173 7.43515 30.6893C9.55315 30.4663 11.0291 29.1593 12.9041 28.0413C12.3531 27.8533 12.0301 27.7433 11.6981 27.6303C13.4731 27.2603 13.6941 26.8213 12.9211 25.2213C12.3551 24.0493 12.5542 23.6363 13.9062 23.1523C14.0812 23.0893 14.2371 22.9783 14.4601 22.8583C14.4891 22.1143 14.5591 21.3613 14.5321 20.6133C14.5141 20.1163 14.6751 19.7643 15.2441 19.5393C14.8471 19.1653 14.4971 18.9613 14.3521 18.6593C14.2371 18.4203 14.3421 18.0543 14.4031 17.7543C14.5241 17.1523 13.9001 17.0843 13.6771 16.6873C13.7361 16.2763 13.7991 15.8353 13.8651 15.3773C14.0731 15.2103 14.2761 15.0583 14.4671 14.8913C15.7331 13.7843 15.7641 13.5813 14.8711 11.8423C15.0791 11.6083 15.3891 11.3673 15.5461 11.0503C15.7041 10.7333 15.7101 10.3393 15.8141 9.82427C16.1261 9.68027 16.5751 9.47127 17.1541 9.20327C17.2661 8.66727 17.3992 8.05227 17.5232 7.43527C17.5972 7.06927 17.6101 6.68427 17.7301 6.33627C18.3631 4.49727 18.3721 4.50027 19.9261 3.46627C19.5221 2.80527 18.8301 3.74327 18.3571 3.12227C18.4461 3.02027 18.5321 2.82427 18.6491 2.80227C19.2771 2.68527 19.9151 2.52727 20.5461 2.53827C23.8911 2.59527 27.2011 2.25727 30.5201 1.88227C34.6011 1.42227 38.7011 1.12427 42.7971 0.816273C45.7401 0.594273 48.6901 0.432272 51.6391 0.311272C54.5261 0.192272 57.4171 0.160273 60.3051 0.0872729C61.3931 0.0602729 62.4811 -0.00472701 63.5691 0.000272993C66.3951 0.012273 69.2231 -0.011728 72.0461 0.099272C75.9571 0.254272 79.8621 0.538273 83.7711 0.730273C85.8871 0.834273 88.0071 0.872272 90.1261 0.919272C94.3641 1.01327 98.6031 1.07427 102.84 1.18427C106.243 1.27227 109.646 1.39727 113.048 1.52927C116.642 1.66927 120.234 1.86627 123.829 1.98727C130.576 2.21427 137.271 2.92627 143.939 3.96927C148.315 4.65327 152.708 5.22827 157.092 5.86627C158.235 6.03227 159.367 6.28527 160.511 6.44127C162.927 6.76927 165.346 7.08527 167.77 7.34927C168.534 7.43227 169.215 7.58427 169.95 7.88427C171.053 8.33427 172.318 8.39727 173.52 8.58627C174.527 8.74427 175.544 8.84727 176.503 8.96827C176.961 9.61127 176.731 10.1703 176.621 10.7243C176.491 11.3763 176.551 11.9523 176.98 12.5363C177.304 12.9783 177.568 13.5733 177.584 14.1073C177.61 15.0263 176.963 15.7603 176.549 16.5393C176.333 16.9453 175.808 16.9943 175.334 16.9473C174.504 16.8653 173.674 16.7813 172.842 16.7253C172.526 16.7043 172.195 16.7173 171.891 16.7943C171.743 16.8313 171.578 17.0363 171.538 17.1953C171.497 17.3563 171.539 17.6243 171.652 17.7233C172.237 18.2353 172.887 18.5993 173.705 18.6613C174.653 18.7333 175.595 18.9003 176.541 19.0263C176.571 19.7673 176.479 20.4073 176.649 20.9663C176.869 21.6903 176.221 22.1243 176.474 22.9123C175.164 22.7413 174.094 22.5963 173.024 22.4633C172.005 22.3363 170.987 22.1893 169.963 22.1103C168.874 22.0263 167.781 21.9733 166.689 21.9763C165.703 21.9793 164.695 21.8053 163.515 22.0903C164.016 22.6193 164.444 22.6123 164.872 22.6333C166.41 22.7093 167.948 22.7943 169.485 22.8783C169.677 22.8883 169.894 22.8563 170.057 22.9333C171.721 23.7123 173.564 23.6343 175.3 24.0523C176.04 24.2303 176.764 24.5103 177.46 24.8223C177.693 24.9263 177.817 25.2733 178.052 25.5913C177.521 25.8103 177.125 25.9723 176.772 26.1173C176.579 26.6433 176.828 26.9283 177.164 27.1493C177.631 27.4553 178.117 27.7323 178.68 28.0733C178.406 28.3293 178.253 28.5673 178.037 28.6563C177.293 28.9643 177.043 29.6343 176.808 30.2903C176.644 30.7483 176.846 31.3123 176.322 31.6843C176.205 31.7673 176.262 32.1693 176.318 32.4063C176.435 32.9013 176.605 33.3833 176.786 33.9773C176.333 33.9503 175.963 33.9303 175.594 33.9053C174.315 33.8203 173.036 33.7223 171.755 33.6543C171.19 33.6243 170.961 33.9783 170.941 34.6093C172.912 35.4633 175.19 35.2473 177.238 36.0553C177.238 36.5793 177.238 37.0103 177.238 37.4903C177.626 37.6503 177.984 37.7763 178.322 37.9423C178.603 38.0813 178.862 38.2663 179.114 38.4213C179.066 38.6073 179.072 38.7663 178.996 38.8463C178.064 39.8363 178.207 40.9263 179.02 41.7783C179.765 42.5573 179.689 43.2143 179.146 44.0393C180.088 44.8533 180.651 45.8603 181.004 46.9503C181.192 47.5293 181.114 48.1943 181.162 48.9143C180.563 49.0573 180.073 49.2913 179.597 49.2673C178.255 49.1993 176.921 48.9913 175.58 48.9003C174.113 48.8003 172.641 48.7593 171.171 48.7153C170.93 48.7083 170.685 48.8223 170.405 48.8893C170.405 49.5533 170.405 50.1793 170.405 50.8023C170.16 50.9663 169.92 51.1263 169.672 51.2933C169.805 51.4533 169.866 51.5983 169.962 51.6283C170.267 51.7223 170.592 51.7483 170.896 51.8443C171.49 52.0303 171.828 52.4613 172.09 53.1713C171.149 53.3573 170.302 53.5243 169.26 53.7293C170.214 54.4703 171.259 54.8243 171.891 55.6963C172.53 56.5773 173.186 57.4463 173.836 58.3233C173.287 58.8673 173.058 59.4863 173.451 60.1703C173.66 60.5333 173.696 60.8163 173.602 61.2323C173.511 61.6373 173.654 62.1053 173.739 62.5373C173.8 62.8483 173.949 63.1413 174.03 63.4493C174.253 64.2993 173.991 64.6813 173.104 64.6343C172.047 64.5783 171.084 64.7153 170.177 65.3263C169.104 66.0483 168.492 67.0763 168.086 68.2433C167.969 68.5793 167.939 69.0843 168.112 69.3593C169.005 70.7763 168.974 72.3913 169.26 73.8993C167.628 75.8833 167.628 75.8833 168.032 77.7503C167.798 78.0353 167.502 78.3603 167.245 78.7143C166.322 79.9853 166.477 81.1103 167.714 82.0413C168.07 82.3093 168.474 82.5123 168.97 82.8153C169.182 83.3323 169.444 83.9753 169.744 84.7073C168.934 85.6923 168.915 86.8563 169.245 88.1493C169.78 88.7273 170.584 89.1053 170.919 90.0613C171.193 90.8433 171.285 91.4743 170.99 92.2213C170.632 93.1283 170.864 93.7243 171.683 94.0673C171.976 94.1903 172.303 94.2323 172.611 94.3233C173.381 94.5503 173.564 95.0873 173.366 95.9503C172.075 95.9743 170.757 95.9963 169.439 96.0253C168.927 96.0363 168.416 96.0653 167.905 96.0873C167.649 96.0983 167.362 96.1963 167.144 96.1123C165.967 95.6603 164.729 95.8553 163.524 95.7223C161.546 95.5043 159.57 95.2583 157.587 95.0963C156.733 95.0263 155.773 94.7003 155.098 95.6083C154.334 95.6673 153.568 95.7983 152.807 95.7703C150.309 95.6803 147.815 95.5233 145.318 95.4113C144.163 95.3593 143.006 95.3433 141.849 95.3353C141.615 95.3333 141.381 95.4393 141.066 95.5153C141.821 97.7563 142.399 99.9373 141.53 102.196C141.571 102.317 141.58 102.465 141.658 102.55C142.009 102.937 142.361 103.302 142.151 103.903C141.942 104.5 141.562 104.917 140.939 105.011C139.67 105.203 138.399 105.399 137.121 105.499C134.818 105.68 132.506 105.753 130.203 105.939C126.362 106.249 122.524 106.601 118.687 106.955C115.171 107.279 111.66 107.677 108.14 107.95C105.964 108.119 103.775 108.115 101.592 108.19C100.375 108.232 99.1581 108.287 97.9411 108.321C96.4641 108.362 94.9871 108.376 93.5111 108.424C91.7151 108.482 89.9191 108.555 88.1231 108.636C80.4201 108.984 72.7151 108.958 65.0111 108.707C62.1251 108.613 59.2461 108.322 56.3601 108.194C53.7301 108.077 51.0941 108.076 48.4621 107.994C45.8351 107.912 43.2111 108.05 40.5891 108.033C39.0541 108.023 37.5191 107.995 35.9811 108.022C34.5651 108.046 33.1551 108.051 31.7641 108.364C31.5291 108.417 31.2721 108.371 31.0291 108.371C30.6141 107.679 30.4451 107.061 30.5461 106.308C30.6601 105.453 30.3161 105.192 29.4091 105.248C29.0251 105.272 28.6411 105.368 28.2611 105.351C27.9541 105.338 27.6531 105.205 27.3141 105.115C27.2931 104.891 27.2111 104.689 27.2711 104.545C27.5401 103.892 27.3451 103.423 26.7691 103.075C26.3941 102.848 26.0142 102.63 25.5362 102.349C25.9752 101.663 26.5751 101.167 26.5451 100.311C26.5041 99.1513 26.5132 98.0043 26.0882 96.8983C25.7852 96.1093 25.2471 95.6133 24.4171 95.4713C23.7221 95.3523 23.0211 95.2753 22.1841 95.1613C22.0511 94.6403 21.9722 94.0693 21.7552 93.5563C21.5702 93.1183 21.2261 92.7473 20.9521 92.3453C21.0211 92.2453 21.0961 92.0493 21.1621 92.0533C22.4151 92.1163 22.7222 90.8953 23.4792 90.3013C23.7232 90.1093 23.7451 89.4523 23.6571 89.0553C23.4051 87.9183 22.6882 87.1213 21.4582 86.7003C21.4582 86.0083 21.5581 85.3023 21.4291 84.6413C21.3091 84.0283 20.9451 83.4633 20.7631 83.0473C20.8301 82.0613 20.8811 81.2443 20.9431 80.4273C20.9911 79.7903 21.0591 79.1543 21.1081 78.5173C21.1541 77.9213 21.3672 77.4353 21.7942 76.9823C22.1832 76.5703 22.4452 76.0323 22.7292 75.5303C22.9872 75.0743 23.2511 74.6753 23.8031 74.5033C24.4691 74.2953 24.6092 73.7313 24.5492 73.1063C24.4952 72.5493 24.4161 71.9953 24.3341 71.3253C23.0651 70.8463 21.7241 70.4733 20.3031 70.5533C19.0221 70.6253 17.7471 70.7903 16.4681 70.8953C15.5971 70.9673 14.7311 71.2383 13.9511 70.4283C13.6821 70.1483 12.9691 70.1713 12.4871 70.2443C11.2421 70.4333 10.3611 69.5413 9.28213 69.2473C8.70013 69.0893 8.52113 68.3283 8.53213 67.7763C8.55813 66.5323 8.08915 65.5363 7.30715 64.6373C6.85415 64.1173 6.69512 63.5083 6.80612 62.8423C7.00512 61.6503 6.53212 60.5623 6.29312 59.4413C6.21612 59.0793 5.98215 58.7363 5.76315 58.4243C5.33715 57.8173 4.8201 57.7333 4.0931 58.1193C3.8701 58.2383 3.66614 58.5113 3.45614 58.5073C3.17414 58.5033 2.84015 58.3553 2.63815 58.1573C2.54315 58.0643 2.63415 57.6583 2.76315 57.4863C2.95015 57.2383 3.26111 57.0883 3.49411 56.8703C3.67811 56.6983 3.8261 56.4863 4.0541 56.2163C3.7981 55.7153 3.54414 55.2183 3.28714 54.7163C3.83614 54.2193 4.05716 53.6553 3.94516 52.8663C3.83016 52.0563 3.83216 51.1953 3.97616 50.3923C4.22616 49.0003 4.1721 47.7093 3.3301 46.5213C3.2571 46.4183 3.19811 46.2943 3.17111 46.1713C2.95811 45.1803 2.37313 44.4483 1.33313 43.7533ZM0.646144 57.4183C0.300144 57.3483 -0.00688259 57.8043 0.000117412 58.2173C0.00711741 58.6133 0.419136 59.0273 0.757136 58.8793C1.05314 58.7493 1.26515 58.4273 1.64215 58.0663C1.21615 57.7753 0.954144 57.4813 0.646144 57.4183ZM174.895 60.8643C174.843 60.8233 174.791 60.7823 174.738 60.7413C174.733 60.7793 174.729 60.8173 174.724 60.8563C174.781 60.8593 174.838 60.8613 174.895 60.8643Z" fill="black"/>
</svg>
