<svg xmlns="http://www.w3.org/2000/svg" viewBox="0 0 235 178"><path fill="curentColor" d="M200.3.3 2.9 24.1c-2.1.2-2.4 3.1-.5 3.8l7.4 2.8a2 2 0 0 1 .2 3.7l-1 .4a2 2 0 0 0-.2 3.5l4.9 3a2 2 0 0 1 .4 3l-13 14.4A2 2 0 0 0 2.9 62l1.7-.1a2 2 0 0 1 2 2.4L4.2 75a2 2 0 0 0 1.5 2.4l3.7.9a2 2 0 0 1 1.3 2.9l-5 9.7a2 2 0 0 0 0 2.1l10.1 14.9c.4.5.5 1.2.2 1.8l-3.2 8.4c-.3 1 0 2 .9 2.4l10.7 6.7a2 2 0 0 1 .7 2.7l-8.8 15a2 2 0 0 0 1.7 3l11 .3a2 2 0 0 1 1.8 2.9l-4 8.7a2 2 0 0 0 2.3 2.8l5.9-1.7a2 2 0 0 1 2.5 2.3L35 175.3a2 2 0 0 0 2.2 2.4l195.3-28.9a2 2 0 0 0 1.4-3l-6.3-9.8a2 2 0 0 1-.2-1.8l5.4-14.6c.2-.4.2-1 0-1.4l-4.3-10.8a2 2 0 0 1-.1-1.2l2.4-10.7a2 2 0 0 0-.5-1.9l-6.3-6.4a2 2 0 0 1-.3-2.2l4.8-10.4c.4-.9.1-2-.7-2.5l-6.8-4.6a2 2 0 0 1-.6-2.7l5.8-9.4a2 2 0 0 0-2-3l-6.3.9a2 2 0 0 1-2.3-2v-7.5a2 2 0 0 0-1-1.8l-7.2-3.4a2 2 0 0 1-1-2.6l5.8-14.8a2 2 0 0 0-.5-2.3l-8.5-7a2 2 0 0 1-.7-1.5v-8a2 2 0 0 0-2.2-2Z"/></svg>