<svg width="108" height="150" viewBox="0 0 108 150" fill="none" xmlns="http://www.w3.org/2000/svg">
<path d="M34.7109 0.00474582C37.3155 0.0512537 39.6711 0.439593 42.2482 0.958544C43.2745 1.17132 43.2745 1.17103 44.2801 1.37964C45.701 1.67409 47.1218 1.96971 48.5427 2.26619C50.0295 2.58041 51.5173 2.89376 53.005 3.20575C55.222 3.65329 57.4398 4.10016 59.6538 4.56553C60.3652 4.7161 61.055 4.86211 61.7457 5.00832C64.1338 5.47999 66.2986 6.02471 68.6257 6.77397C69.1226 8.23984 69.1226 8.23994 69.6097 9.67694C68.2715 10.0059 66.9726 10.3255 65.6738 10.6449V12.5798C64.0394 13.7281 64.0394 13.7281 61.9839 14.8176C56.2541 17.9587 56.2541 17.9587 50.0728 28.5296C49.6054 29.3377 49.1528 30.1215 48.7001 30.9064C47.7329 32.568 46.7656 34.2297 45.7984 35.8914C44.5153 38.1064 43.2331 40.3213 41.9333 42.5266C34.7404 54.6661 28.0966 67.0905 21.7017 79.6534C20.3222 82.41 18.9535 85.1705 17.5001 87.8902C14.0395 94.3034 10.7215 100.002 10.5709 107.415C15.0047 108.24 18.6071 108.448 23.1137 107.679C23.8045 107.548 24.4756 107.421 25.1457 107.293C31.4923 106.156 37.653 104.599 43.8413 102.817C48.0999 101.521 51.4454 100.251 55.834 101.608C54.5351 108.604 53.191 115.497 51.0371 122.292C50.1043 125.128 49.1665 127.957 48.3213 130.819C48.0999 131.586 47.8854 132.332 47.6699 133.077C47.234 134.582 46.7981 136.089 46.3632 137.595C45.6439 140.147 44.8764 142.639 44.0262 145.155C40.9326 147.478 40.9316 147.478 36.9859 147.9C36.2853 147.974 35.6044 148.046 34.9244 148.118C32.7744 148.36 30.6244 148.594 28.4715 148.812C27.7384 148.884 27.026 148.954 26.3146 149.025C21.7352 149.491 17.1449 150.071 12.5389 149.993C10.3712 148.124 10.3712 148.124 9.46003 145.206C8.85488 143.374 8.85488 143.374 8.26056 141.578C7.82269 140.253 7.38481 138.928 6.94792 137.602C6.27192 135.517 5.59398 133.433 4.90125 131.354C4.44862 129.996 3.99991 128.639 3.55417 127.28C3.33573 126.61 3.12319 125.959 2.91065 125.309C0.898417 119.168 -0.926858 113.309 0.519592 106.889C1.17591 105.048 1.83024 103.207 2.46392 101.359C2.82504 100.291 2.82506 100.291 3.17929 99.2459C4.45945 95.5146 5.59298 91.7571 6.67733 87.9667C9.18254 79.1535 11.8029 70.3741 14.4763 61.6084C14.6751 60.9582 14.868 60.3255 15.0599 59.6948C17.1715 52.7786 19.287 45.8645 21.497 38.9784C22.7211 35.1793 23.9432 31.386 25.0571 27.5549C25.3149 26.6518 25.5648 25.776 25.8147 24.8991C26.3313 23.0921 26.847 21.2831 27.3596 19.4751C29.2164 12.7803 31.4451 6.39765 34.1864 0L34.7109 0.00474582ZM78.4655 9.67694C82.9367 9.44915 86.8569 10.0839 91.1845 11.0527C92.4016 11.3352 92.4016 11.3349 93.5942 11.6119C96.4251 12.2507 99.254 12.895 102.081 13.5479C102.861 21.9177 103.387 30.2911 103.812 38.6838C103.889 40.2167 103.967 41.7495 104.045 43.2823C104.271 47.7083 104.495 52.1334 104.716 56.5594C104.881 59.8856 105.049 63.2119 105.217 66.5372C105.555 73.2324 105.893 79.9286 106.226 86.6238C106.394 90.0354 106.562 93.4469 106.734 96.8585C106.9 100.141 107.065 103.423 107.226 106.706C107.288 107.975 107.348 109.206 107.408 110.439C107.886 119.766 108.055 129.044 107.985 138.38C104.119 139.737 104.119 139.737 99.997 140.171C98.7276 140.321 98.7276 140.32 97.4839 140.467C95.7147 140.681 93.9455 140.894 92.1763 141.106C89.3975 141.434 86.6188 141.763 83.842 142.099C73.2042 143.392 62.6038 144.56 51.8981 145.155C52.2326 144.168 52.5573 143.208 52.882 142.251C54.5548 141.922 56.1784 141.603 57.8019 141.284C57.5904 138.309 57.5904 138.309 59.1352 135.625C59.7483 134.567 60.3436 133.54 60.9389 132.514C62.8212 129.186 63.7186 127.182 67.3111 125.649C68.0924 125.371 68.851 125.102 69.6097 124.833C70.0072 123.702 70.3929 122.604 70.7787 121.506C71.0502 120.334 71.314 119.197 71.5777 118.059C73.5663 115.126 74.2442 112.692 75.0216 109.289C76.0144 104.772 77.0122 100.28 78.3347 95.843C79.2744 93.724 79.2753 93.724 81.3633 92.9702C83.35 92.6243 85.3357 92.2774 87.3213 91.9306V89.9957C88.2827 89.2351 89.2165 88.4967 90.1503 87.7574C92.3111 86.0648 93.1711 85.2751 94.3322 82.7385C94.6244 81.9159 94.9088 81.1175 95.1932 80.3191C97.7466 77.4375 99.0582 76.2002 99.4361 72.3352C99.1291 69.6746 99.1291 69.6736 98.1451 68.7057C96.4192 68.82 94.6972 68.9915 92.9792 69.1901C89.1712 69.6358 86.1327 69.6165 82.4014 68.7057C85.6682 57.1785 89.5077 45.8228 94.3243 34.8285C94.6195 34.1735 94.9068 33.5379 95.1932 32.9013C94.1895 33.2308 93.2154 33.5505 92.2412 33.8693C91.9067 34.5272 91.582 35.1657 91.2572 35.8042H89.2893V37.7401C85.6889 39.1586 84.1608 40.9908 81.9705 44.0904C79.9868 46.9206 79.1897 48.1811 75.7861 49.1365C75.0245 49.2101 74.2856 49.2809 73.5456 49.3526C72.8155 54.2553 72.8155 54.2553 70.4087 58.6668C69.9177 59.5901 69.9167 59.5901 69.4346 60.4961C69.104 61.1181 68.7821 61.7217 68.4604 62.3254C67.8464 63.4784 67.2442 64.6372 66.6578 65.8028C65.724 68.2338 64.8256 70.5205 63.5523 72.7964C57.5914 76.4444 57.5914 76.4444 50.5146 77.7476C49.3122 77.9637 48.1452 78.173 46.9782 78.3832C45.3379 78.7059 43.6986 79.0285 42.0583 79.3511C42.5867 75.2982 42.5867 75.2982 44.9571 71.8672C48.1009 67.3124 51.1187 62.7856 53.559 57.8199C54.6945 55.479 55.8458 53.2021 57.1643 50.9552C57.6524 50.1636 58.1267 49.3952 58.6009 48.6269C59.645 46.9322 60.6909 45.2386 61.7379 43.5468C68.1849 33.2163 73.0812 22.5233 77.7777 11.3271C78.0109 10.766 78.2382 10.2215 78.4655 9.67694Z" fill="#FF0000"/>
</svg>
