<svg width="450" height="150" viewBox="0 0 450 150" fill="none" xmlns="http://www.w3.org/2000/svg">
<path fill-rule="evenodd" clip-rule="evenodd" d="M0 0.177292H48.1118V33.4282H64.1221V16.8028H80.1325V0.177292H128.244V50.1504H112.234V66.7759H96.2238V83.4011H112.234V100.027H128.244V150H80.1325V133.374H64.1221V116.749H48.1118V150H0V0.177292ZM320.973 0.177292H369.085V33.4282H385.096V16.8028H401.106V0.177292H449.218V50.1504H433.207V66.7759H417.197V83.4011H433.207V100.027H449.218V150H401.106V133.374H385.096V116.749H369.085V150H320.973V0.177292ZM144.432 0.177292H192.544V150H144.432V0.177292ZM224.653 0.177292V16.8028H208.643V133.286H224.653V149.911H304.874V99.938H256.763V49.965H304.874V0H224.653V0.177292Z" fill="white"/>
</svg>
