<svg width="556" height="263" viewBox="0 0 556 263" fill="none" xmlns="http://www.w3.org/2000/svg">
<g clip-path="url(#clip0_9_2)">
<g clip-path="url(#clip1_9_2)">
<path d="M480.72 85.0049C483.4 85.0529 485.825 85.4537 488.477 85.9893C489.533 86.2089 489.533 86.2086 490.568 86.4239C492.03 86.7278 493.492 87.0329 494.954 87.3389C496.484 87.6632 498.015 87.9866 499.546 88.3086C501.828 88.7705 504.11 89.2317 506.388 89.712C507.12 89.8674 507.83 90.0181 508.541 90.169C510.999 90.6558 513.226 91.218 515.621 91.9913C516.132 93.5042 516.132 93.5043 516.634 94.9874C515.257 95.3269 513.92 95.6568 512.583 95.9864V97.9834C510.901 99.1685 510.901 99.1685 508.786 100.293C502.89 103.535 502.89 103.535 496.529 114.445C496.048 115.279 495.582 116.088 495.116 116.898C494.121 118.613 493.125 120.328 492.13 122.043C490.81 124.329 489.49 126.615 488.153 128.891C480.751 141.42 473.914 154.243 467.333 167.209C465.913 170.054 464.505 172.903 463.009 175.71C459.448 182.329 456.033 188.21 455.878 195.861C460.441 196.713 464.148 196.927 468.786 196.134C469.497 195.998 470.187 195.867 470.877 195.735C477.408 194.562 483.748 192.955 490.116 191.116C494.498 189.778 497.941 188.467 502.457 189.868C501.121 197.088 499.738 204.202 497.521 211.216C496.561 214.142 495.596 217.062 494.726 220.016C494.498 220.808 494.278 221.578 494.056 222.347C493.607 223.9 493.159 225.455 492.711 227.009C491.971 229.643 491.181 232.215 490.306 234.812C487.123 237.209 487.122 237.209 483.061 237.645C482.34 237.721 481.64 237.796 480.94 237.87C478.727 238.12 476.515 238.361 474.299 238.586C473.545 238.661 472.812 238.733 472.08 238.806C467.367 239.287 462.643 239.886 457.903 239.805C455.673 237.876 455.673 237.876 454.735 234.865C454.112 232.974 454.112 232.974 453.501 231.12C453.05 229.753 452.6 228.385 452.15 227.017C451.454 224.865 450.757 222.714 450.044 220.568C449.578 219.167 449.116 217.766 448.658 216.363C448.433 215.672 448.214 215 447.995 214.329C445.925 207.991 444.046 201.944 445.535 195.318C446.21 193.418 446.883 191.518 447.536 189.611C447.907 188.509 447.907 188.509 448.272 187.43C449.589 183.579 450.756 179.701 451.871 175.789C454.45 166.693 457.146 157.632 459.897 148.585C460.102 147.914 460.3 147.261 460.498 146.61C462.671 139.472 464.848 132.336 467.122 125.229C468.382 121.308 469.639 117.393 470.786 113.439C471.051 112.507 471.308 111.603 471.565 110.698C472.097 108.833 472.628 106.966 473.155 105.1C475.066 98.1903 477.359 91.6029 480.18 85L480.72 85.0049ZM525.747 94.9874C530.348 94.7523 534.382 95.4074 538.836 96.4073C540.088 96.6989 540.088 96.6986 541.316 96.9844C544.229 97.6437 547.14 98.3087 550.049 98.9825C550.852 107.621 551.393 116.263 551.83 124.925C551.909 126.507 551.99 128.089 552.07 129.671C552.303 134.239 552.533 138.806 552.761 143.374C552.931 146.807 553.103 150.24 553.276 153.672C553.625 160.582 553.972 167.493 554.314 174.403C554.487 177.924 554.661 181.445 554.838 184.966C555.008 188.354 555.178 191.741 555.344 195.129C555.408 196.439 555.47 197.71 555.531 198.982C556.022 208.608 556.197 218.184 556.125 227.82C552.146 229.22 552.146 229.22 547.905 229.668C546.598 229.823 546.598 229.822 545.318 229.974C543.498 230.194 541.677 230.414 539.856 230.633C536.997 230.972 534.137 231.311 531.28 231.658C520.333 232.992 509.424 234.198 498.407 234.812C498.751 233.793 499.086 232.803 499.42 231.815C501.141 231.475 502.812 231.146 504.483 230.817C504.265 227.746 504.265 227.746 505.855 224.976C506.486 223.884 507.098 222.824 507.711 221.765C509.648 218.331 510.571 216.262 514.268 214.68C515.072 214.393 515.853 214.116 516.634 213.838C517.043 212.671 517.44 211.537 517.837 210.404C518.116 209.195 518.388 208.021 518.659 206.847C520.705 203.82 521.403 201.308 522.203 197.795C523.225 193.133 524.251 188.497 525.612 183.918C526.579 181.731 526.58 181.731 528.729 180.953C530.774 180.596 532.817 180.238 534.86 179.88V177.883C535.85 177.098 536.811 176.336 537.772 175.573C539.995 173.826 540.88 173.011 542.075 170.393C542.376 169.544 542.668 168.72 542.961 167.896C545.589 164.922 546.938 163.645 547.327 159.656C547.011 156.91 547.011 156.909 545.999 155.91C544.223 156.028 542.451 156.205 540.683 156.41C536.764 156.87 533.637 156.85 529.797 155.91C533.159 144.013 537.11 132.293 542.067 120.946C542.371 120.27 542.666 119.614 542.961 118.957C541.928 119.297 540.926 119.627 539.923 119.956C539.579 120.635 539.245 121.294 538.911 121.953H536.885V123.951C533.18 125.415 531.608 127.306 529.354 130.505C527.312 133.426 526.492 134.727 522.99 135.713C522.206 135.789 521.446 135.862 520.684 135.936C519.933 140.996 519.933 140.996 517.456 145.549C516.951 146.502 516.95 146.502 516.453 147.437C516.113 148.079 515.782 148.702 515.451 149.325C514.819 150.515 514.199 151.711 513.596 152.914C512.635 155.423 511.71 157.783 510.4 160.132C504.266 163.897 504.266 163.897 496.983 165.242C495.746 165.465 494.545 165.681 493.344 165.898C491.656 166.231 489.969 166.564 488.281 166.897C488.825 162.714 488.825 162.714 491.264 159.173C494.5 154.472 497.605 149.8 500.116 144.675C501.285 142.259 502.47 139.909 503.826 137.59C504.329 136.773 504.817 135.98 505.305 135.187C506.379 133.438 507.456 131.69 508.533 129.944C515.167 119.282 520.206 108.246 525.039 96.6905C525.279 96.1114 525.513 95.5494 525.747 94.9874Z" fill="#FF0000"/>
<path d="M110.262 90.9375C118.424 89.0513 127.002 86.8442 135.164 89.6621C136.001 90.1396 136.813 90.6029 137.625 91.0664C139.094 91.8792 140.557 92.7049 142 93.5635V95.5605C141.355 95.8099 140.728 96.0519 140.102 96.2939C138.851 96.8062 138.851 96.8065 137.625 97.3086C135.164 98.2917 135.164 98.2916 133 99.5557C132.692 100.245 132.393 100.915 132.094 101.584C131.108 103.858 131.108 103.857 128.18 104.596C127.056 104.834 125.966 105.067 124.875 105.299C123.198 105.669 123.198 105.669 121.555 106.032C120.686 106.207 119.843 106.377 119 106.547C118.514 108.641 117.961 110.651 117.246 112.68C116.971 113.396 116.704 114.091 116.438 114.786C115.949 116.059 115.474 117.295 115 118.531H104C103.498 115.705 103.498 115.704 104 112.539C105.02 111.733 106.01 110.95 107 110.167C108.02 109.615 109.01 109.079 110 108.544C102.765 109.69 95.5829 110.99 88.4141 112.492C87.3383 112.72 86.2941 112.942 85.25 113.163C81.4995 113.951 77.7493 114.741 74 115.535C73.66 122.327 73.33 128.919 73 135.511C79.156 130.687 79.1565 130.686 83.3779 129.2C84.5589 128.876 85.7053 128.561 86.8516 128.246C88.1531 127.887 89.4164 127.537 90.6797 127.188C92.6621 126.666 94.6427 126.142 96.6172 125.591C102.585 123.914 107.864 121.787 114 123.525C114.414 145.028 112.968 166.322 110.835 187.708C110.634 189.687 110.634 189.687 110.438 191.627C110.307 192.917 110.18 194.17 110.054 195.422C109.867 197.184 109.867 197.184 109.684 198.911C109.385 201.737 109.27 203.885 108 206.421H105C102.982 204.571 102.982 204.571 101.887 202.543C100.218 199.426 98.6419 196.32 96.5625 193.453C91.8409 180.994 91.8409 180.993 93.9688 167.203C94.1739 165.604 94.1739 165.604 94.375 164.037C95.2833 156.553 96.3485 149.117 97.6201 141.686C97.8121 140.585 97.8117 140.584 98 139.505C95.9984 140.084 93.9963 140.661 91.9922 141.231C91.1449 141.472 90.3224 141.706 89.5 141.939C84.8217 143.298 80.2494 144.554 75.4062 145.158C74.2481 145.274 73.1241 145.386 72 145.498C72.0272 148.649 71.9874 151.779 71.8545 154.928C71.7504 156.853 71.7505 156.853 71.6484 158.74C71.53 160.954 71.4114 163.167 71.29 165.38C71.2032 166.958 71.1165 168.537 71.0303 170.115C70.8503 173.412 70.6697 176.709 70.4873 180.006C70.25 184.289 70.0143 188.572 69.7842 192.855C69.6043 196.204 69.4223 199.552 69.2373 202.9C69.1487 204.495 69.0606 206.09 68.9727 207.685C68.8505 209.98 68.7283 212.275 68.5996 214.569C68.5593 215.282 68.5196 215.975 68.4805 216.667C68.4095 217.96 68.3413 219.215 68.2725 220.47C67.9617 223.816 67.6994 224.813 65.1367 226.954C63.4025 228.283 61.6836 229.632 59.9766 230.995C58.9646 231.808 57.9822 232.598 57 233.387C50.6528 238.369 44.85 242.582 42.875 250.803C42.4611 253.526 42.1171 256.025 41.2031 258.625C40.1222 260.505 40.1219 260.504 38.0547 261.18C36.9539 261.392 36.9539 261.393 35.875 261.602C33.9182 261.98 33.9181 261.98 32 262.351C31.9439 259.414 31.9724 256.586 32.3311 253.669C32.4941 252.694 32.6523 251.746 32.8105 250.8C32.9999 249.626 33.1834 248.487 33.3672 247.348C33.9631 243.654 34.5084 239.953 35.0449 236.25C35.2343 234.937 35.2353 234.937 35.4209 233.649C35.8208 230.885 36.2202 228.119 36.6191 225.354C36.9019 223.395 37.1845 221.435 37.4678 219.475C38.2139 214.314 38.96 209.152 39.7051 203.991C40.4758 198.652 41.2471 193.313 42.0186 187.975C43.6798 176.479 45.3403 164.983 47 153.487C43.3335 155.063 40.2371 155.781 36.2285 156.016C35.5346 156.047 34.861 156.078 34.1875 156.109C31.7918 156.243 29.3967 156.369 27 156.483V154.486C27.6986 154.151 28.3766 153.825 29.0547 153.499C30.0135 153.049 30.9443 152.613 31.875 152.177C33.8893 151.222 35.9371 150.338 38 149.493C41.4 148.474 44.7 147.485 48 146.496L52 119.53C47.7259 120.347 43.4524 121.164 39.1758 121.967C37.4087 122.298 35.6418 122.631 33.875 122.964C22.5697 125.133 11.5296 127.065 0 127.521V125.522C0.583003 125.347 1.14899 125.178 1.71484 125.008C2.47053 124.758 3.20403 124.516 3.9375 124.274C6.15232 123.572 6.15235 123.572 8 122.526C8.3014 120.529 8.30148 120.528 9 118.531C9.64656 118.206 10.2748 117.891 10.9023 117.575C12.1467 117.252 12.1471 117.253 13.3672 116.937C14.7224 116.563 14.7224 116.562 16.0508 116.196C17.9272 115.715 19.8023 115.229 21.6758 114.737C23.0348 114.366 23.035 114.366 24.3672 114.002C27.0204 113.319 28.6053 112.914 30.5996 111.021C40.1016 105.937 40.1016 105.937 51.375 104.799C53.2056 104.673 53.2057 104.673 55 104.55C54.9263 100.724 54.8244 97.2329 56 93.5635C56.9137 93.6059 57.8006 93.6473 58.6875 93.6885C62.1414 94.5997 62.7286 95.0096 64.875 97.6201C65.5975 98.6176 66.2987 99.5865 67 100.555C69.4835 100.067 71.9613 99.5644 74.4326 99.0186C79.528 97.8578 84.6252 96.7053 89.7246 95.5625C92.0458 95.0427 94.3668 94.5218 96.6875 94C100.116 93.2178 103.545 92.436 106.978 91.6689C108.094 91.4202 109.178 91.179 110.262 90.9375ZM314 90.5674C324.369 85.9832 334.726 84.2913 346 85.5732C353.077 87.1481 358.858 90.5261 363 96.5596C366.571 104.368 366.782 111.787 364.875 120.03C362.103 129.253 357.306 133.862 348.977 138.476C348.305 138.826 347.652 139.165 347 139.505C349.04 141.882 351.02 144.189 353 146.496C353.34 145.477 353.67 144.489 354 143.5H356C356.527 144.035 357.039 144.553 357.551 145.072C359.818 147.789 361.989 150.567 364.605 152.957C366.182 154.276 366.182 154.276 368 156.483C367.873 157.375 367.749 158.24 367.625 159.105C367.309 160.303 367.309 160.303 367 161.478C367.637 162.193 367.637 162.193 368.262 162.894C370.031 164.442 370.031 164.442 371.543 166.233C374.665 169.885 377.865 173.359 381.312 176.708C383.875 179.141 385.583 181.2 387 184.448H385C383 183.782 381 183.117 379 182.451C373.575 181.474 370.594 180.364 366.312 176.833C364.027 174.788 362.982 173.616 360.124 173.474L359.527 173.459C356.895 173.677 356.895 173.676 354.578 172.038C353.787 171.397 353.018 170.776 352.25 170.154C349.908 168.37 349.907 168.37 348 166.472C347.66 165.453 347.33 164.463 347 163.475C344.932 163.699 344.932 163.699 343.605 162.207C342 160.479 342 160.478 335 153.487C334.943 156.059 334.874 158.629 334.791 161.2L334.688 164.349L334.619 167.474C334.583 168.488 334.547 169.473 334.512 170.458C334.508 173.145 334.508 173.145 334 175.46C330.625 177.707 330.625 177.707 329 183.45C333.077 182.686 337.082 182.255 341.215 182.009C341.949 181.968 342.662 181.929 343.375 181.89C345.917 181.741 348.458 181.594 351 181.452L351.062 185.385C351.084 186.737 351.071 188.092 351 189.442C349.893 190.711 349.893 190.711 347.272 191.209C345.427 191.67 343.581 192.133 341.739 192.608C339.702 193.138 337.664 193.665 335.625 194.187C333.591 194.688 331.559 195.191 329.532 195.722C328.876 195.895 328.239 196.063 327.602 196.23C323.598 197.245 321.62 197.462 319.368 200.984C318.245 203.566 318.244 203.566 315.933 204.323C315.11 204.459 314.311 204.591 313.512 204.724C312.566 204.896 311.649 205.065 310.731 205.232C301.482 206.759 292.379 208.739 283.324 211.157C282.067 211.499 280.846 211.832 279.625 212.164C277.032 212.867 274.44 213.57 271.848 214.274C265.568 215.988 259.279 217.659 252.983 219.312C241.049 222.443 229.129 225.626 217.22 228.854C194.465 235.024 171.726 241.266 148.876 247.073C147.167 247.505 145.458 247.936 143.75 248.368C135.257 250.545 126.89 252.64 118.135 253.473C115.191 253.32 113.392 252.093 111.371 249.995C110.679 249.174 110.679 249.173 110 248.368C108.322 246.546 106.677 244.713 105.074 242.824C103.937 241.483 102.795 240.146 101.632 238.828C100.629 237.698 99.6305 236.564 98.6357 235.428C98.1222 234.84 97.6234 234.27 97.125 233.699C94.5593 230.834 92.3049 228.346 91.1094 224.617C90.7873 222.361 90.7874 222.36 92.125 220.591C94.6119 219.018 96.1101 218.96 99 219.404C101.25 222.775 101.25 222.776 107 225.397C106.833 222.984 106.833 222.984 107 220.403C113.177 216.309 113.177 216.309 120.683 215.219C122.034 215.016 122.034 215.016 123.359 214.816C126.394 214.345 129.428 213.875 132.464 213.413C134.665 213.078 136.866 212.741 139.066 212.402C143.793 211.673 148.519 210.944 153.246 210.221C161.494 208.959 169.739 207.684 177.983 206.398C182.401 205.71 186.819 205.023 191.237 204.338C194.854 203.777 198.472 203.217 202.088 202.652C205.557 202.111 209.026 201.57 212.496 201.035C213.824 200.83 215.113 200.631 216.402 200.433C224.212 199.207 231.968 198.174 239.854 197.58C240.583 197.53 241.292 197.481 242 197.433V195.435C238.055 194.477 238.055 194.477 235 191.439C232.942 188.017 232.797 185.315 232.89 181.329C232.927 180.352 232.964 179.404 233 178.456C233.165 173.761 233.351 169.067 233.556 164.373C233.623 162.822 233.691 161.271 233.757 159.721C233.93 155.641 234.105 151.561 234.282 147.481C234.465 143.26 234.646 139.038 234.826 134.816C235.124 127.848 235.423 120.88 235.725 113.912C235.818 111.748 235.909 109.647 236 107.546H223V193.438C220.96 193.098 218.98 192.768 217 192.438C214.671 190.196 214.67 190.197 213 187.445C211.709 184.438 211.53 183.679 208.434 182.338C207.606 182.037 206.803 181.744 206 181.452C204.61 163.5 204.61 163.499 204 145.498H206C205.988 144.592 205.976 143.712 205.965 142.833L205.938 139.318C205.904 135.976 205.936 132.888 206.504 129.592C206.673 128.888 206.836 128.204 207 127.521H200C200.021 130.989 200.038 134.458 200.049 137.927C200.053 139.347 200.057 140.769 200.062 142.189C200.075 144.275 200.088 146.361 200.094 148.447C200.095 149.125 200.096 149.783 200.098 150.44C200.112 153.705 200.145 156.748 199.514 159.952C199 162.476 199 162.476 198.795 165.977C198.757 167.329 198.72 168.642 198.684 169.955C198.619 172.139 198.555 174.324 198.497 176.508C198.457 178.024 198.415 179.54 198.372 181.056C198.27 184.564 198.172 188.072 198.076 191.581C198.038 193.023 198.038 193.024 198 194.437C196.036 194.151 196.036 194.15 194 193.438C193.511 192.482 193.037 191.555 192.562 190.628C192.031 189.546 191.516 188.496 191 187.445C190.141 186.962 189.307 186.492 188.474 186.023C185.126 180.956 185.127 180.956 184.977 174.622C184.936 173.406 184.895 172.225 184.855 171.044C184.67 167.256 184.49 163.469 184.341 159.68C184.238 157.042 184.127 154.405 184.007 151.769C183.674 144.706 183.36 137.643 183.08 130.578C183.053 129.878 183.026 129.199 183 128.52C180.62 127.84 178.31 127.181 176 126.521V124.524C179.535 124.02 179.535 124.02 183 123.525C182.222 117.975 181.746 112.461 181.459 106.863L181.312 103.801L181.131 100.691C181.082 99.674 181.035 98.6857 180.988 97.6982C180.797 93.9894 181.086 91.7804 183 88.5693C189.571 88.3217 195.57 89.2452 202 90.5674C201.277 96.4334 200.814 102.252 200.557 108.156C200.516 109.158 200.477 110.131 200.438 111.104C200.289 114.578 200.141 118.053 200 121.528C203.535 121.024 203.535 121.024 207 120.529C206.904 118.599 206.814 116.669 206.756 114.737L206.688 112.352C206.438 107.78 206.381 104.639 208.688 100.586C214.841 97.8299 214.841 97.8298 221.682 97.4082C222.916 97.3532 224.114 97.2995 225.312 97.2461C227.704 97.1032 230.096 96.9618 232.488 96.8213C234.362 96.7324 236.181 96.6458 238 96.5596C229.415 95.0465 229.415 95.0466 221 93.5635V91.5654C232.287 90.5104 243.587 89.4762 254.927 89.2812C255.844 89.2726 256.735 89.2642 257.625 89.2559C260.781 89.1909 263.867 89.1534 267 89.5684C272.206 91.831 275.743 92.8932 281.369 92.8281C282.242 92.8023 283.09 92.7771 283.938 92.752C285.655 92.7254 287.372 92.698 289.09 92.6699C290.419 92.6341 291.71 92.5992 293 92.5645C293.133 94.683 293.133 94.683 291.977 96.9062C291.294 98.2755 291.294 98.276 290.625 99.6182C289.804 101.289 288.938 102.941 288 104.55C286.096 105.646 286.095 105.646 284.165 105.744C283.401 105.778 282.659 105.811 281.918 105.845C280.632 105.906 280.631 105.906 279.37 105.966C278.434 106.006 277.526 106.044 276.617 106.083C273.713 106.217 270.809 106.349 267.905 106.477C265.882 106.565 263.858 106.655 261.835 106.747C257.165 106.961 252.495 107.172 247.824 107.378C246.524 107.435 245.262 107.491 244 107.546C247.388 109.991 249.67 111.196 250.682 115.307C250.649 116.314 250.617 117.292 250.586 118.271L250.527 121.499C250.476 122.634 250.425 123.735 250.375 124.836C250.298 128.021 250.221 131.204 250.096 134.388C250.063 135.109 250.031 135.809 250 136.509C251.888 133.981 253.592 131.817 256.141 129.936C256.858 129.518 257.554 129.112 258.25 128.706C258.978 128.275 259.684 127.857 260.391 127.438C260.938 127.127 261.469 126.824 262 126.521C261.32 126.182 260.66 125.852 260 125.522V123.525C261.276 122.577 262.57 121.649 263.914 120.8C264.623 120.368 265.312 119.949 266 119.53C268.911 117.753 271.831 115.995 274.766 114.258C275.865 113.61 276.933 112.98 278 112.352C279.1 111.692 280.167 111.052 281.234 110.411C282.302 109.783 283.339 109.173 284.375 108.563C288.284 106.245 291.445 104.963 296 104.55L297.03 105.062C299.258 106.154 300.393 106.544 303.453 106.523C304.744 106.404 305.997 106.288 307.25 106.172C309.183 106.002 309.183 106.003 311.078 105.837C312.554 105.691 312.554 105.691 314 105.548C315.186 107.47 315.185 107.471 314.798 109.516C314.156 111.638 314.156 111.638 312.368 112.844C311.289 113.419 311.288 113.419 310.23 113.982C309.41 114.427 308.614 114.859 307.818 115.29C306.924 115.756 306.056 116.207 305.188 116.659C298.161 120.415 291.072 124.038 283.938 127.583C277.105 130.948 270.344 134.419 263.625 138.007C259.615 140.175 255.756 142.228 251.461 143.781C250.624 144.025 249.812 144.262 249 144.499C249.1 152.479 249.055 160.432 248.691 168.405C248.648 169.297 248.605 170.163 248.562 171.028C248.301 176.562 247.875 181.973 247 187.445H245C247.02 190.975 247.02 190.976 249 194.437C253.544 194.552 257.812 194.281 262.304 193.599C263.476 193.413 263.476 193.413 264.625 193.23C266.309 192.973 267.992 192.715 269.676 192.457C274.157 191.759 278.64 191.069 283.124 190.386C284.038 190.247 284.925 190.111 285.812 189.977C295.65 188.478 305.501 187.132 315.375 185.893C316.607 185.741 317.804 185.594 319 185.447C318.819 183.232 318.652 181.017 318.498 178.8C318.435 177.877 318.374 176.98 318.312 176.084C318.237 175.169 318.165 174.281 318.092 173.393C318.035 172.517 317.981 171.667 317.926 170.817C317.677 168.504 317.677 168.504 318 166.472C319.02 165.793 320.01 165.133 321 164.474C321.34 169.907 321.67 175.181 322 180.454C321.641 174.291 321.285 168.128 320.934 161.965C320.789 159.43 320.645 156.896 320.5 154.361C319.694 140.537 316.147 123.251 319.756 109.7C321.21 105.676 322.219 103.965 326.062 101.928C329.055 101.331 329.055 101.33 332 102.552L333 126.521C339 123.525 339 123.526 340.758 121.485C342.102 119.38 343.318 117.386 345 115.535H349C349.34 114.856 349.67 114.197 350 113.538C350.408 108.714 350.641 103.776 348 99.5557C338.625 96.2561 328.195 98.7453 318.938 101.116C318.006 101.37 317.101 101.616 316.197 101.862C315.311 102.098 314.45 102.327 313.59 102.556C310.013 103.559 307.608 103.467 304 102.552V100.555C306.787 98.6228 306.788 98.6227 309.043 97.4883C309.772 97.1301 310.48 96.7822 311.188 96.4346C312.282 95.8947 312.282 95.8944 313.355 95.3652C314.186 94.9595 314.186 94.9593 315 94.5615C313.98 94.222 312.99 93.893 312 93.5635C312.68 92.5449 313.34 91.556 314 90.5674ZM291.342 212.407C294.657 211.516 296.719 211.335 300 212.413C295.699 214.678 291.32 216.525 286.79 218.286C284.92 219.007 283.051 219.733 281.184 220.461C278.186 221.63 275.187 222.797 272.188 223.961C269.169 225.128 266.152 226.296 263.138 227.473C262.171 227.851 261.232 228.217 260.293 228.584C259.349 228.946 258.432 229.299 257.516 229.65C256.649 229.99 255.807 230.32 254.966 230.65C252.713 231.524 252.712 231.524 251 232.389C250.66 233.068 250.33 233.727 250 234.386C231.843 246.07 231.843 246.069 209.792 249.903C208.486 250.182 207.181 250.461 205.875 250.74C197.633 252.541 189.719 255.334 182.125 250.553C180.01 248.379 179.318 247.336 179 244.373C180.973 243.322 180.974 243.323 183.104 242.711C184.442 242.322 184.443 242.322 185.755 241.94C186.787 241.64 187.79 241.348 188.792 241.056C189.928 240.727 191.03 240.409 192.133 240.09C196.469 238.832 200.805 237.578 205.144 236.329C206.144 236.041 206.144 236.041 207.125 235.759C226.041 230.313 244.98 224.95 263.979 219.797C266.465 219.125 268.951 218.453 271.438 217.781C275.012 216.805 278.587 215.83 282.166 214.87L285.434 213.997C286.99 213.57 286.99 213.571 288.516 213.152C289.476 212.899 290.409 212.653 291.342 212.407ZM37 169.468C38.7764 168.395 38.7764 168.394 40 168.469C40.069 171.203 39.9616 173.798 39.6504 176.519C39.3936 178.33 39.1373 180.142 38.8857 181.955C38.7423 182.999 38.7421 182.999 38.6016 184.021C38.0665 187.909 37.5725 191.8 37.0918 195.694C36.8833 197.392 36.6746 199.089 36.4648 200.786C36.1427 203.392 35.8208 205.999 35.5 208.605C34.1997 219.233 32.9131 229.838 31 240.378C30.2619 239.859 30.2616 239.86 29.5381 239.352C27.654 236.939 27.5594 235.026 27.4307 232.021C27.4171 231.28 27.4037 230.56 27.3906 229.841C27.3259 227.441 27.2779 225.043 27.2588 222.643C27.2557 221.775 27.253 220.933 27.25 220.091C27.156 207.601 28.0402 196.073 31.7471 184.099C31.9604 183.432 32.1679 182.785 32.375 182.139C33.7461 177.853 35.0982 173.552 37 169.468ZM443 85.5732C443.232 91.2138 442.552 96.6028 441.78 102.188C441.6 103.457 441.425 104.688 441.25 105.919C440.697 109.893 440.143 113.868 439.582 117.841C439.094 121.292 438.611 124.743 438.129 128.195C437.092 135.628 436.049 143.06 435 150.491C433.98 150.831 432.99 151.161 432 151.49C430.271 148.337 429.034 145.664 428.312 142.127C428.206 141.236 428.103 140.37 428 139.505C425.42 139.14 424.276 138.829 422.552 136.822C422.105 136.085 421.672 135.368 421.238 134.652C420.745 133.843 420.266 133.058 419.787 132.272C419.286 131.421 418.799 130.594 418.312 129.768C415.405 125.034 412.88 121.09 412 115.535H415C414.469 114.559 413.953 113.612 413.438 112.664C410.482 108.88 408.725 108.136 404 107.546C401.813 108.732 401.812 108.732 400 110.542C398.679 115.828 399.918 120.9 401.938 125.835C402.652 127.383 403.341 128.944 404 130.517C404.48 133.577 404.963 135.451 406.609 138.12C407.976 140.047 409.31 141.977 410.604 143.954C411.211 144.897 411.801 145.812 412.391 146.727C413.677 148.709 414.964 150.693 416.25 152.676C420.148 158.715 424.095 164.651 428.402 170.408C430.892 173.659 432.488 176.177 433.312 180.204C433.551 182.186 433.551 182.186 434 184.448C436.252 189.207 437.4 192.771 437.459 198.055L437.438 200.366C437.648 208.373 435.861 213.915 430.75 220.153C425.435 224.496 420.372 226.873 413.455 226.952C412.684 226.933 411.936 226.914 411.188 226.896C408.108 226.843 405.064 226.713 402 226.396C389.371 223.952 380.163 215.356 372.426 205.57C371.201 203.982 371.201 203.982 370 202.426C364.273 195.421 359.737 189.468 358 180.454C361.769 180.097 361.769 180.096 363.676 181.519C364.232 182.027 364.772 182.52 365.312 183.013C366.567 184.13 367.795 185.276 369 186.446C369.575 187.099 370.133 187.732 370.691 188.365C373.82 191.874 375.681 193.776 380.5 194.062C384.802 194.229 386.927 195.321 390.262 197.971C394.053 201.153 397.899 204.207 402.191 206.69C408.444 209.764 414.313 210.644 421 208.418C420.495 203.879 420.495 203.879 420 199.43C419.065 199.408 418.157 199.388 417.25 199.367C413.771 198.743 413.771 198.744 412.125 195.622C410.926 193.198 409.684 190.946 408.223 188.662C407.531 187.633 406.859 186.634 406.188 185.635C404.251 182.75 402.306 179.88 400.277 177.06C388.188 160.333 379.71 142.683 375 122.526C376.7 121.847 378.35 121.188 380 120.529C380.6 113.814 381.795 108.141 385.355 102.341C389.178 96.9037 391.937 95.166 398.559 93.8594C399.877 93.6737 401.157 93.4937 402.438 93.3135C408.527 92.4052 412.823 92.4427 418.047 95.9277C418.626 96.4397 419.188 96.9367 419.75 97.4336C421.729 99.134 422.942 100.45 424.203 102.747C424.605 103.657 424.606 103.658 425 104.55H427C427.34 101.494 427.67 98.5268 428 95.5605H431C431.87 93.0026 432.622 90.8635 434 88.5693C437.26 86.4665 439.119 85.5732 443 85.5732ZM118 181.452C120.074 180.23 120.075 180.231 123 180.454C123.505 181.048 123.995 181.625 124.484 182.201C127.869 187.22 131.617 191.918 136.938 194.936C137.979 195.445 138.989 195.939 140 196.434C139.66 197.113 139.33 197.772 139 198.431C138.378 198.38 137.775 198.332 137.172 198.283C136.348 198.206 135.549 198.131 134.75 198.057C130.187 197.655 127.318 196.822 124.113 193.449L122.312 191.128C119.757 187.909 118.543 185.54 118 181.452ZM132 105.548C143.522 95.8312 158.224 89.2316 171 101.553V104.55C170.32 104.889 169.66 105.218 169 105.548C169.68 106.906 170.34 108.225 171 109.543H173C174.971 114.464 175.18 118.312 175 123.525C173.64 123.865 172.32 124.195 171 124.524V127.521H160C159.326 122.269 157.757 117.506 156 112.539C153.292 112.918 151.325 113.329 149.008 114.813C142.639 120.422 136.036 126.771 135.125 135.573C135.083 136.91 135.041 138.207 135 139.505C134.495 140.009 134.495 140.01 134 140.504C133.387 151.443 135.331 166.364 142.309 175.101C145.076 177.827 147.477 178.771 151.25 178.894C155 178.457 155 178.456 157 176.459C159.387 171.241 160.334 167.097 160.264 161.376C160.238 160.562 160.213 159.771 160.188 158.98C160.161 157.368 160.134 155.756 160.105 154.144C160.052 152.299 160.052 152.299 160 150.491H163V148.494C159.374 149.75 159.374 149.75 155.492 149.936C154.772 149.976 154.074 150.015 153.375 150.055C150.917 150.205 148.459 150.351 146 150.491C145.191 147.565 145.191 147.565 144 144.499C142.959 144.117 141.948 143.746 140.938 143.375C139.939 143.078 138.969 142.79 138 142.502C136.851 140.579 136.851 140.578 137 138.507C138.872 136.293 138.872 136.293 141.715 135.84C143.451 135.545 143.451 135.545 145.152 135.257C147.069 134.929 147.069 134.929 148.947 134.607C150.277 134.388 151.607 134.17 152.938 133.95C161.522 132.472 170.262 130.673 179 130.517C180.207 131.5 180.207 131.5 180.103 133.377C180.091 134.215 180.08 135.029 180.069 135.843C180.059 136.791 180.048 137.712 180.038 138.632C180.02 139.665 180.002 140.668 179.984 141.671C179.95 143.779 179.915 145.888 179.879 147.996C179.813 151.332 179.751 154.668 179.709 158.004C179.682 160.174 179.648 162.344 179.608 164.514C179.587 165.576 179.567 166.607 179.547 167.638C179.486 173.985 179.502 178.905 176 184.448H174V186.446C167.2 192.222 160.112 196.387 151.125 196.933C143.357 196.647 137.32 192.971 131.75 187.757C122.041 177.296 118.635 166.003 118.59 151.897L118.625 148.182C118.602 145.731 118.594 143.279 118.602 140.828C119.034 127.032 121.941 115.32 132 105.548ZM211.399 187.857C213.311 189.901 213.993 191.707 215 194.437C213.208 195.218 213.208 195.218 211 195.435C208.753 194.085 208.752 194.085 207 192.438C207.34 190.741 207.67 189.093 208 187.445H211L211.399 187.857ZM380.386 148.084C383.646 154.097 387.091 159.969 390.707 165.788C392.939 169.369 395.169 172.952 397.386 176.542C397.892 177.362 398.384 178.159 398.875 178.955C401.607 183.339 404.303 187.528 406 192.438C405.355 192.45 404.728 192.462 404.102 192.474C402.851 192.487 402.851 192.487 401.625 192.501C400.083 192.523 398.54 192.508 397 192.438C392.702 188.669 392.702 188.669 390.648 183.04C390.215 181.8 389.795 180.596 389.375 179.393C388.563 177.09 387.769 174.781 387 172.464C386.539 170.096 386.539 170.096 386 168.469C384.98 168.129 383.99 167.799 383 167.47C379.051 160.551 377.193 153.414 377 145.498H379L380.386 148.084ZM95 144.499C96.2032 147.447 96.2029 147.447 95.7461 150.494C95.568 151.728 95.3955 152.926 95.2227 154.124C94.9407 156.115 94.6581 158.106 94.3662 160.096C94.1628 161.48 93.962 162.864 93.7637 164.249C93.1844 168.32 92.5969 172.39 92 176.459H91C90.8962 166.634 88.3058 152.332 95 144.499ZM316.035 140.461L316.062 144.312C316.097 148.056 316.187 150.93 315 154.486C314.099 154.832 313.225 155.167 312.351 155.503C309 156.484 309 156.484 305.8 157.764C304.043 158.501 302.285 159.238 300.526 159.972C298.579 160.784 296.633 161.598 294.688 162.414C287.458 165.45 280.268 168.533 272.786 170.908C271.292 171.374 269.809 171.872 268.328 172.378C264.575 173.66 260.93 174.827 257 175.46C256.136 173.681 256.136 173.681 256 171.465C256.552 170.807 257.089 170.169 257.625 169.53C258.824 168.49 258.824 168.489 260 167.47C267.481 159.339 276.76 154.249 286.664 149.588C287.458 149.216 288.229 148.855 289 148.494C292.13 147.019 295.263 145.549 298.4 144.089C299.518 143.571 300.603 143.067 301.688 142.563C302.784 142.052 303.849 141.555 304.913 141.059C305.945 140.585 306.947 140.125 307.949 139.665C310.992 138.26 312.628 137.508 316 137.508L316.035 140.461ZM284.188 167.907C288.607 166.079 291.353 165.012 296 166.472V168.469C295.179 168.84 294.383 169.201 293.586 169.562C292.494 170.039 291.435 170.502 290.375 170.966C286.006 172.905 282.791 173.75 278 173.463V170.466C278.907 170.083 279.788 169.711 280.668 169.339C281.865 168.852 283.026 168.38 284.188 167.907ZM234.033 125.789C234.103 135.731 234.109 145.671 233.691 155.607C233.648 156.542 233.605 157.449 233.562 158.356C233.373 162.586 233.346 166.432 232 170.466C231.32 170.126 230.66 169.797 230 169.468C229.696 153.463 230.222 137.312 233 121.528H234L234.033 125.789ZM316.625 159.23C317.087 161.997 316.429 163.121 315 165.473C311.97 164.968 311.97 164.968 309 164.474V159.48C311.647 158.022 312.894 157.482 316 157.482C316.213 158.077 316.419 158.654 316.625 159.23ZM303.419 122.647C306.039 121.171 306.039 121.17 309 122.526C309.073 126.32 309.338 129.922 308 133.513C304.986 135.267 304.986 135.267 302.681 136.249C296.463 138.874 290.463 141.707 284.641 145.121C275.811 150.327 267.498 154.186 257 153.487V150.491C258.812 149.68 258.813 149.68 261 148.494C268.115 142.554 268.115 142.554 276.311 138.057L279 136.509C282.513 134.486 286.029 132.471 289.559 130.477C290.789 129.783 292.02 129.089 293.25 128.395C294.465 127.7 295.679 127.005 296.895 126.312C298.062 125.659 299.195 125.025 300.328 124.392C301.379 123.799 302.399 123.223 303.419 122.647ZM447 100.555C447.256 101.239 447.505 101.903 447.754 102.567C448.029 103.326 448.296 104.062 448.562 104.799C451.348 112.307 449.65 118.352 447.156 125.669C446.763 126.786 446.382 127.871 446 128.956C444.917 132.111 443.834 135.266 442.734 138.415C442.485 139.125 442.242 139.815 442 140.504H445C442.979 145.073 440.68 148.113 437 151.49C436.954 148.974 436.995 146.542 437.266 144.038C437.394 143.154 437.518 142.296 437.643 141.438C437.787 140.429 437.927 139.449 438.067 138.47C438.225 137.393 438.378 136.348 438.531 135.304C439.016 131.939 439.501 128.575 439.991 125.211C440.332 122.872 440.672 120.532 441.01 118.192C442.002 111.314 442.998 104.436 444 97.5586H446L447 100.555ZM198 87.5703C192.22 87.2307 186.61 86.9018 181 86.5723C181.34 85.5537 181.67 84.5648 182 83.5762H198V87.5703ZM114.062 7.54688C122.813 -2.05189 136.982 -0.905538 148.305 3.02148C148.881 3.24431 149.441 3.46048 150 3.67676V0.680664C150.732 0.668726 151.442 0.657095 152.152 0.645508C153.099 0.636223 154.018 0.627176 154.938 0.618164C156.625 0.59683 158.314 0.6087 160 0.680664C161.284 1.73863 161.284 1.73856 161.113 4.17578C161.108 5.29125 161.103 6.37438 161.098 7.45703L161.088 10.9971L161.062 14.7246C161.047 19.0318 161.027 23.3394 161 27.6465H145C144.349 25.0782 143.698 22.5097 143.047 19.9414C142 17.6592 142 17.6591 140.113 16.8555C135.336 16.4145 132.089 15.9349 128 18.6572C127.688 21.1541 127.688 21.1545 128 23.6514C130 25.6488 130 25.6493 131.812 26.3311C132.556 26.5396 133.278 26.7419 134 26.9443C134.825 27.1843 135.625 27.4166 136.426 27.6494C145.321 30.2255 153.98 32.6313 160.703 39.3311C165.065 45.0402 164.84 51.7141 164 58.6074C162.009 64.8305 158.219 69.8256 152.445 72.9912C142.84 76.8093 133.277 76.599 123.625 73.0264C122.393 72.5382 121.196 72.0646 120 71.5908V74.5869H109V48.6201H125L127 55.6113C129.125 57.5463 129.125 57.5463 132 58.6074C135.961 59.2366 139.034 59.2344 142.5 56.9844C144.421 53.9459 144.538 52.1501 144 48.6201C141 46.6227 141 46.6222 138.827 45.833C137.976 45.5748 137.15 45.3239 136.324 45.0732C134.447 44.4827 132.568 43.897 130.688 43.3145C127.907 42.4766 125.151 41.6042 122.406 40.6562C116.835 38.2824 112.581 34.0973 110 28.6455C109.133 20.7785 109.648 14.2267 114.062 7.54688ZM224.596 3.85742C225.033 6.28913 225.049 6.88702 225.113 9.27832C225.108 10.1512 225.103 10.9985 225.098 11.8457L225.088 14.6553L225.062 17.5342C225.047 20.905 225.027 24.2757 225 27.6465H208C207.495 22.0985 207.495 22.0983 207 16.6602C205.64 16.3206 204.32 15.9907 203 15.6611C203.016 20.3139 203.049 24.9658 203.111 29.6182C203.139 31.52 203.164 33.4223 203.188 35.3242C203.195 38.1229 203.204 40.9203 203.247 43.7188C203.263 44.6251 203.278 45.5051 203.293 46.3848C203.27 51.4148 202.906 54.4772 206.524 58.2285C209.352 60.4524 209.353 60.4523 209.488 64.1514C209.4 66.0483 209.4 66.0486 209.312 67.9082C209.232 70.1354 209.136 72.3624 209 74.5869C205.699 74.6074 202.397 74.6239 199.096 74.6357C197.751 74.6398 196.407 74.6444 195.062 74.6494C193.722 74.658 192.382 74.6665 191.041 74.6748C189.743 74.6781 188.483 74.6814 187.223 74.6846C185.148 74.6939 183.073 74.6745 181 74.5869C179.691 73.4913 179.691 73.4913 179.727 70.791C179.692 69.5987 179.659 68.4414 179.625 67.2842C179.36 63.8347 179.36 63.8341 180 60.6045C182.488 58.9916 182.489 58.9913 185 56.6094C185.568 54.339 185.663 52.253 185.719 49.9141C185.713 48.5749 185.713 48.5743 185.707 47.2617C185.754 44.4453 185.795 41.6303 185.805 38.8135C185.81 36.8546 185.824 34.8952 185.848 32.9365C185.929 27.178 185.981 21.4202 186 15.6611C184.64 16.0007 183.32 16.3306 182 16.6602C181.66 20.3954 181.33 24.0211 181 27.6465H164L163.938 22.0283C164.168 11.3901 164.169 11.39 165 0.680664H224L224.596 3.85742ZM249.535 0.583008C254.469 0.562561 259.134 0.838431 264 1.67871C270.548 4.27144 276.533 9.8468 279.383 16.2812C281.119 22.9663 281.052 30.388 278 36.6348C276.191 38.8793 274.355 40.9198 273.062 43.501C273 45.6233 273 45.6236 274.312 49.0566C275.165 50.8534 275.165 50.854 276 52.6152C276.812 55.4238 276.813 55.4238 278 57.6084C280.04 58.2875 282.02 58.9473 284 59.6064V74.5869H267C265.947 72.1844 264.895 69.7816 263.85 67.376C263.412 66.3685 262.987 65.3899 262.562 64.4121C262.129 63.4247 261.708 62.4662 261.287 61.5078C260.872 60.5496 260.469 59.6195 260.066 58.6895C258.908 56.0343 258.004 53.6298 257.371 50.7998C257.245 50.0588 257.122 49.3393 257 48.6201H249C249.186 51.4498 249.196 53.9177 250 56.6094C252.07 57.8681 252.07 57.869 254 59.6064C254.63 62.8723 254.63 62.8726 254.702 64.9961C254.718 65.7738 254.734 66.5293 254.75 67.2842C254.876 70.9719 254.876 70.9721 255 74.5869H226V59.6064C227.515 59.1021 227.515 59.1018 229 58.6074C231.109 55.4486 231.268 53.7728 231.354 50.0703C231.36 49.3147 231.366 48.5811 231.371 47.8477C231.39 46.2872 231.406 44.7265 231.42 43.166C231.426 40.7105 231.438 38.2569 231.487 35.8018C231.52 34.1988 231.542 32.5955 231.552 30.9922C231.554 30.2074 231.556 29.4453 231.559 28.6836C231.635 25.8149 231.464 23.5393 231 20.6553C229.333 18.9911 227.666 17.3261 226 15.6611C225.453 12.1987 225.453 12.1985 225.561 9.89746C225.604 9.20439 225.646 8.53109 225.688 7.8584C225.766 5.46191 225.864 3.07515 226 0.680664C229.559 0.660036 233.118 0.642773 236.678 0.631836C238.139 0.627753 239.601 0.62318 241.062 0.618164C243.202 0.605394 245.341 0.592448 247.48 0.586914C248.179 0.585458 248.857 0.584421 249.535 0.583008ZM331.61 0.570312C332.741 0.579847 333.872 0.610906 335 0.680664C336.235 1.69395 336.236 1.69422 336.13 3.79395C336.132 5.18448 336.131 5.18463 336.133 6.54785L336.137 9.52832L336.125 12.665L336.137 15.8018L336.133 18.7822C336.13 21.0512 336.654 22.9985 335 24.6504C333.075 24.7026 331.15 24.7469 329.225 24.7383C328.447 24.7297 327.692 24.7213 326.938 24.7129C324.292 24.6972 321.646 24.6772 319 24.6504L318 17.6592C315.28 16.98 312.64 16.3203 310 15.6611V29.6436H326V42.627H310V59.6064C314.545 59.1021 314.545 59.1018 319 58.6074C319.505 53.5639 319.505 53.5636 320 48.6201C321.88 48.6011 323.759 48.5831 325.639 48.5713C326.42 48.5666 327.179 48.5621 327.938 48.5576C330.633 48.5277 333.303 48.547 336 48.6201C337.547 53.7008 338.421 56.5781 338.708 59.3701C339.566 59.0843 339.792 59.0097 341 58.6074C342.925 57.0552 343.878 55.9186 344.789 53.6113C344.989 52.8267 345.184 52.0653 345.379 51.3037C345.613 50.4103 345.839 49.5429 346.066 48.6758C346.308 47.7111 346.543 46.7742 346.777 45.8379C347.568 42.8038 348.357 39.7692 349.134 36.7314C349.929 33.6117 350.727 30.4929 351.529 27.375C352.05 25.3731 352.57 23.3711 353.09 21.3691C354.897 14.1996 357.132 7.50389 360 0.680664H379L379.609 1.82715C380.072 2.73296 380.169 3.09643 380.556 4.5498C380.764 5.33362 380.966 6.09471 381.168 6.85547C381.521 8.17794 381.52 8.17833 381.866 9.47461C382.122 10.4413 382.369 11.3801 382.617 12.3184C383.425 15.3542 384.233 18.3901 385.038 21.4268C385.864 24.5439 386.691 27.6609 387.52 30.7773C388.052 32.7806 388.585 34.7838 389.117 36.7871C391.047 44.0691 393.007 51.3425 395 58.6074C396.7 58.947 398.35 59.2769 400 59.6064V74.5869H372C370.874 70.0041 370.874 70.004 371.121 66.9209C371.229 66.0257 371.333 65.1569 371.438 64.2881C371.618 62.7268 371.803 61.1657 372 59.6064H375V51.6162C370.92 51.2766 366.96 50.9468 363 50.6172C362.813 53.9879 362.813 53.9881 363 57.6084C364.02 58.2875 365.01 58.9473 366 59.6064C366.149 61.3691 366.292 63.1375 366.271 64.9062C366.242 65.6933 366.215 66.4577 366.188 67.2217C366.093 70.941 366.093 70.9412 366 74.5869H338V68.8984C337.73 70.5174 337.397 72.3818 337 74.5869H287V59.6064C288.515 59.1021 288.515 59.1018 290 58.6074C291.118 56.3735 291.118 56.3733 291.216 50.6738C291.223 49.8389 291.231 49.0282 291.238 48.2178C291.255 46.5085 291.27 44.7992 291.283 43.0898C291.295 40.3892 291.312 37.6896 291.356 34.9893C291.385 33.2291 291.406 31.4684 291.416 29.708C291.419 28.8493 291.422 28.0151 291.426 27.1816C291.49 24.2179 291.368 21.6251 291 18.6572C290.316 18.13 289.653 17.6182 288.989 17.1064C288.313 16.6151 287.656 16.138 287 15.6611C286.561 12.3558 286.561 12.3555 286.648 10.0732C286.683 9.36293 286.716 8.67282 286.75 7.9834C286.813 5.54675 286.892 3.11609 287 0.680664C292.671 0.659671 298.342 0.642875 304.014 0.631836C306.322 0.627745 308.63 0.62317 310.938 0.618164C314.351 0.605485 317.764 0.592525 321.178 0.586914C322.274 0.585458 323.338 0.584421 324.402 0.583008C326.001 0.575119 326.001 0.575115 327.568 0.567383C328.558 0.567305 329.52 0.567458 330.48 0.567383L331.61 0.570312ZM463.203 0.0947266C464.212 0.114623 465.192 0.134009 466.172 0.15332C467.218 0.205052 468.234 0.255454 469.25 0.305664C472.837 0.399704 476.415 0.518997 480 0.680664V16.6602C478.98 16.9997 477.99 17.3296 477 17.6592C475 20.6551 475 20.6552 474.757 23.8496C474.761 25.1802 474.765 26.4722 474.77 27.7637C474.77 29.1875 474.772 30.6113 474.775 32.0352C474.794 34.2728 474.812 36.5103 474.814 38.748C474.814 44.9067 473.991 51.7371 476 57.6084C477.36 58.2875 478.68 58.9473 480 59.6064V74.5869H452C451.915 72.104 451.832 69.6941 451.75 67.2842C451.619 64.5716 451.7 62.3463 452 59.6064C453.333 58.6077 454.667 57.6081 456 56.6094C456.391 53.0403 456.391 53.04 456.352 51.0215C456.3 49.9665 456.3 49.9658 456.25 48.9316C456.187 46.495 456.108 44.0643 456 41.6289C455.221 43.3234 454.441 45.0174 453.658 46.71C453.328 47.4228 453.008 48.1148 452.688 48.8066C451.768 50.8104 450.842 52.8091 449.884 54.7949C449.583 55.4119 449.292 56.0106 449 56.6094C448.521 57.6162 448.055 58.5941 447.59 59.5713C446.164 61.8416 446.164 61.8413 443.555 62.126C442.644 62.0756 441.759 62.0265 440.875 61.9775C438.26 61.9182 438.26 61.9187 436 61.6035C434.861 60.5698 434.861 60.5694 434.061 58.749C433.678 57.9355 433.305 57.1461 432.934 56.3564C432.519 55.4777 432.116 54.6244 431.713 53.7715C431.279 52.8477 430.858 51.9513 430.438 51.0547C429.603 49.2848 428.768 47.5141 427.934 45.7441C427.276 44.3449 426.638 42.987 426 41.6289C425.66 47.0619 425.33 52.3352 425 57.6084C426.7 58.2875 428.35 58.9473 430 59.6064V74.5869H402V59.6064C403.36 58.9273 404.68 58.2676 406 57.6084V18.6572C403.98 17.6486 403.98 17.6489 402 16.6602V0.680664C404.574 0.642545 407.148 0.606596 409.723 0.583008C410.794 0.573723 411.835 0.564676 412.875 0.555664C413.939 0.53842 414.971 0.52162 416.004 0.504883C417.02 0.498251 418.006 0.491789 418.992 0.485352C421.672 0.403114 421.672 0.403359 424 0.680664C426.102 2.56989 426.103 2.56966 427.189 5.05371C427.634 6.06169 428.065 7.04022 428.496 8.01855C428.987 9.13079 429.463 10.2105 429.939 11.29C430.449 12.4578 430.943 13.5912 431.438 14.7246C434.102 20.7355 436.763 26.7078 438.848 32.9482C439.239 34.2017 439.62 35.4182 440 36.6348H442C443.231 30.543 443.231 30.5425 446.07 24.8135C446.908 22.8651 447.745 20.9164 448.571 18.9629C449.109 17.6893 449.65 16.4166 450.194 15.1455C450.463 14.5197 450.724 13.9121 450.984 13.3047C452.46 9.85258 454.048 6.5859 455.863 3.29883C457.727 0.498957 457.727 0.498705 460.474 0C461.402 0.0323321 462.302 0.0633454 463.203 0.0947266ZM87 22.6523C87.7091 24.6352 88.3669 26.6371 89 28.6455C89.34 30.6828 89.67 32.6603 90 34.6377H103V35.6357C102.331 36.1146 101.681 36.5802 101.031 37.0449C100.171 37.606 99.3353 38.1508 98.5 38.6953C97.222 39.5325 97.2215 39.532 95.9688 40.3525C95.2994 40.7863 94.6497 41.2079 94 41.6289C94.7413 45.2811 95.4005 48.9369 96 52.6152C93.941 52.7934 93.9409 52.793 92.2734 51.5225C91.3148 50.8132 91.3146 50.8133 90.375 50.1182C89.4085 49.4089 89.4082 49.409 88.4609 48.7139C87.9642 48.3425 87.4821 47.9816 87 47.6211C83.6726 49.71 80.705 51.1351 77 52.6152C77.68 48.88 78.34 45.2543 79 41.6289C75.9165 39.5758 73.5778 37.2818 71 34.6377H83C84.02 30.5628 85.01 26.6074 86 22.6523H87ZM507 33.6387H519V35.6357C518.331 36.1478 517.681 36.6456 517.031 37.1426C514.688 38.638 512.344 40.1334 510 41.6289C510.68 45.3641 511.34 48.9899 512 52.6152H510C507.066 50.392 504.623 48.5258 501 47.6211C500.299 48.0455 499.618 48.4572 498.938 48.8691C496.836 50.9216 496.836 50.9224 493 52.6152C493.68 48.88 494.34 45.2543 495 41.6289C491.917 39.5758 489.578 37.2818 487 34.6377C490.74 34.2981 494.37 33.9683 498 33.6387C499.36 29.9034 500.68 26.2778 502 22.6523H503C504.36 26.3876 505.68 30.0133 507 33.6387ZM369 21C368.5 21.001 365 41 365 41C366 42 371 42 372 41C373 40 369.5 21 369 21ZM249 18.9941C248.948 21.0252 248.903 23.0572 248.912 25.0889C248.921 25.9106 248.929 26.7083 248.938 27.5059C248.953 30.3017 248.973 33.0978 249 35.8936C251.695 35.9621 254.314 36.0933 256.997 35.8936C259.934 34.3404 259.935 34.3407 261.996 31.918C263.086 28.191 263.267 25.8916 262.184 22.1631C258.816 18.8141 254.66 18.3488 249.999 18C249.659 18.3378 249.33 18.6663 249 18.9941Z" fill="white"/>
</g>
</g>
<defs>
<clipPath id="clip0_9_2">
<rect width="556" height="263" fill="white"/>
</clipPath>
<clipPath id="clip1_9_2">
<rect width="556" height="263" fill="white"/>
</clipPath>
</defs>
</svg>
