<svg width="300" height="150" viewBox="0 0 300 150" fill="none" xmlns="http://www.w3.org/2000/svg">
<g clip-path="url(#clip0_17_2)">
<path d="M92.037 143.906C93.69 143.906 95.082 145.298 95.082 146.951C95.082 148.605 93.69 149.997 92.037 149.997C90.384 149.997 88.992 148.605 88.992 146.951C88.992 145.298 90.384 143.906 92.037 143.906Z" fill="white"/>
<path d="M105.708 133.572C109.077 133.572 111.183 135.063 112.122 136.455L108.882 139.468C108.267 138.559 107.262 137.977 105.933 137.977C103.86 137.977 102.273 139.402 102.273 141.766C102.273 144.131 103.86 145.589 105.933 145.589C107.262 145.589 108.267 144.941 108.882 144.065L112.122 147.11C111.183 148.473 109.077 149.994 105.708 149.994C100.815 149.994 97.155 146.687 97.155 141.763C97.155 136.839 100.815 133.566 105.708 133.566V133.572Z" fill="white"/>
<path d="M113.352 141.769C113.352 137.361 116.559 133.572 121.872 133.572C127.185 133.572 130.425 137.361 130.425 141.769C130.425 146.177 127.251 150 121.872 150C116.493 150 113.352 146.177 113.352 141.769ZM125.307 141.769C125.307 139.696 124.074 137.98 121.872 137.98C119.67 137.98 118.503 139.696 118.503 141.769C118.503 143.843 119.703 145.592 121.872 145.592C124.041 145.592 125.307 143.876 125.307 141.769Z" fill="white"/>
<path d="M152.778 149.61V140.083C152.778 138.883 152.196 137.977 150.705 137.977C149.343 137.977 148.371 138.85 147.885 139.501V149.61H142.896V140.083C142.896 138.883 142.344 137.977 140.823 137.977C139.494 137.977 138.555 138.85 138.036 139.501V149.61H133.047V133.959H138.036V135.87C138.717 134.964 140.724 133.569 143.187 133.569C145.422 133.569 146.976 134.508 147.624 136.356C148.53 134.994 150.573 133.569 153.033 133.569C155.916 133.569 157.731 135.06 157.731 138.268V149.61H152.775H152.778Z" fill="white"/>
<path d="M163.92 143.906C165.573 143.906 166.965 145.298 166.965 146.951C166.965 148.605 165.573 149.997 163.92 149.997C162.267 149.997 160.875 148.605 160.875 146.951C160.875 145.298 162.267 143.906 163.92 143.906Z" fill="white"/>
<path d="M177.588 133.572C180.957 133.572 183.063 135.063 184.002 136.455L180.762 139.468C180.147 138.559 179.142 137.977 177.813 137.977C175.74 137.977 174.153 139.402 174.153 141.766C174.153 144.131 175.74 145.589 177.813 145.589C179.142 145.589 180.147 144.941 180.762 144.065L184.002 147.11C183.063 148.473 180.957 149.994 177.588 149.994C172.695 149.994 169.035 146.687 169.035 141.763C169.035 136.839 172.695 133.566 177.588 133.566V133.572Z" fill="white"/>
<path d="M185.235 141.769C185.235 137.361 188.442 133.572 193.755 133.572C199.068 133.572 202.308 137.361 202.308 141.769C202.308 146.177 199.134 150 193.755 150C188.376 150 185.235 146.177 185.235 141.769ZM197.19 141.769C197.19 139.696 195.957 137.98 193.755 137.98C191.553 137.98 190.386 139.696 190.386 141.769C190.386 143.843 191.586 145.592 193.755 145.592C195.924 145.592 197.19 143.876 197.19 141.769Z" fill="white"/>
<path d="M19.4518 43.1155C19.3798 23.0505 32.2048 11.9332 55.7608 11.8462C72.7288 11.7832 75.7498 22.8794 75.7648 26.9122C75.7918 34.6388 64.8448 42.8334 64.8448 42.8334C64.8448 42.8334 65.4478 47.6374 74.8258 47.6044C84.2008 47.5684 93.3358 41.3751 93.2788 25.877C93.2068 8.07146 74.5708 -0.0661642 56.1418 -0.000151014C40.7308 0.0568604 -0.147154 2.22329 -0.000153887 42.8274C0.131846 78.8976 68.1268 82.0783 68.2108 105.168C68.3038 130.244 40.1608 137.001 30.6838 137.034C21.2038 137.07 17.3008 130.262 17.2858 126.526C17.2108 106.218 37.4098 100.559 37.4098 100.559C37.4038 99.0617 36.2278 92.2953 28.4038 92.3223C8.25585 92.3943 0.221846 109.738 0.284846 126.664C0.335846 141.058 10.5118 150.054 25.8718 149.997C55.2418 149.889 88.3588 135.549 88.2418 103.701C88.1338 73.9226 19.5328 66.1391 19.4488 43.1125L19.4518 43.1155Z" fill="white"/>
<path d="M299.433 122.908C299.199 122.34 298.542 122.478 297.672 123.196C294.342 125.944 286.719 133.74 268.878 133.806C236.373 133.926 230.736 80.32 230.736 80.32C230.736 80.32 255.504 61.8063 259.377 54.3468C263.25 46.8874 250.932 45.228 250.932 45.228C250.932 45.228 233.604 66.3252 221.322 72.5275C222.639 63.3577 231.717 42.4435 232.272 30.4141C232.827 18.3817 217.803 21.3132 215.406 22.4685C215.424 27.7165 202.164 75.3931 197.334 101.6C194.493 106.134 190.434 111.346 186.798 111.361C184.695 111.37 183.921 107.457 183.9 101.861C183.87 94.1018 188.166 81.6673 188.139 74.1088C188.121 68.8788 185.736 68.5697 183.675 68.5757C183.222 68.5757 180.741 68.6477 180.285 68.6477C174.993 68.6687 176.724 64.1258 171.972 64.1438C157.365 64.1978 138.765 80.149 137.958 104.229C133.029 107.496 126.129 111.607 122.607 111.622C118.914 111.634 117.993 108.205 117.984 105.249C117.966 100.058 126.381 69.2178 126.381 69.2178C126.381 69.2178 137.064 66.4753 141.732 65.5691C145.26 64.882 146.244 64.6269 147.645 62.9196C149.046 61.2122 151.698 57.6925 153.861 54.5209C156.024 51.3522 153.9 48.9098 149.895 48.9218C144.636 48.9428 130.575 52.2554 130.575 52.2554C130.575 52.2554 137.328 23.1076 137.325 22.5135C137.325 21.9014 136.533 21.6163 135.423 21.6193C132.864 21.6283 128.295 23.0026 125.37 24.0468C120.897 25.6431 117.249 31.1312 116.52 33.6877C115.791 36.2442 110.727 56.2402 110.727 56.2402C110.727 56.2402 83.634 65.5961 79.929 67.0034C79.686 67.0964 79.545 67.3124 79.548 67.5345C79.548 67.7715 82.653 79.6359 89.001 79.6119C93.579 79.5939 106.896 74.1418 106.896 74.1418C106.896 74.1418 100.038 101.453 100.071 110.527C100.092 116.363 102.819 123.202 114.216 123.16C124.839 123.121 134.094 117.684 139.287 113.87C142.131 121.062 148.839 123.034 153.42 123.016C163.695 122.977 171.627 114.815 172.614 113.723C173.949 116.873 177.087 122.932 184.269 122.905C188.328 122.89 192.534 118.32 195.633 113.945C195.579 115.04 195.588 115.964 195.672 116.699C196.914 128.006 213.696 121.359 214.59 119.781C215.157 111.607 214.8 94.885 218.064 84.5629C222.393 119.775 238.83 143.459 268.374 143.351C284.892 143.291 293.349 138.538 296.874 134.619C300.939 130.103 300.117 124.564 299.433 122.911V122.908ZM157.68 111.301C143.499 111.352 162.018 74.5559 174.12 74.5139C174.138 79.2548 173.874 111.244 157.68 111.301Z" fill="white"/>
<path d="M272.847 122.581C285.651 122.536 295.575 114.101 297.384 111.352C299.733 107.782 294.66 102.395 293.043 102.488C289.002 106.356 284.775 111.04 275.286 111.076C264.111 111.118 266.643 98.8188 266.643 98.8188C266.643 98.8188 288.141 101.597 296.784 86.1352C299.547 81.1872 299.661 74.3429 298.545 71.3933C297.408 68.3927 291.18 62.9916 281.226 63.8288C269.001 64.858 253.599 77.6105 250.212 92.9316C247.491 105.243 252.633 122.656 272.841 122.584L272.847 122.581ZM286.503 70.9702C288.513 70.9012 288.336 74.2169 287.793 77.6915C287.058 82.3935 280.575 94.3419 268.251 93.8948C269.085 86.9274 278.256 71.2583 286.503 70.9732V70.9702Z" fill="white"/>
</g>
<defs>
<clipPath id="clip0_17_2">
<rect width="300" height="150" fill="white"/>
</clipPath>
</defs>
</svg>
